<?xml version="1.0"?><svg width="871.31555" height="774.09955" xmlns="http://www.w3.org/2000/svg" xmlns:xlink="http://www.w3.org/1999/xlink">
 <title>Alone Palm Tree</title>
 <defs>
  <linearGradient id="linearGradient7732">
   <stop stop-color="#9d7b5d" id="stop7734" offset="0"/>
   <stop stop-color="#9d7b5d" stop-opacity="0" id="stop7736" offset="1"/>
  </linearGradient>
  <linearGradient id="linearGradient6849">
   <stop stop-color="#000000" stop-opacity="0.431818" id="stop6851" offset="0"/>
   <stop stop-color="#000000" stop-opacity="0" id="stop6853" offset="1"/>
  </linearGradient>
  <linearGradient id="linearGradient5962">
   <stop stop-color="#698212" id="stop5964" offset="0"/>
   <stop stop-color="#698212" stop-opacity="0" id="stop5966" offset="1"/>
  </linearGradient>
  <linearGradient id="linearGradient5079">
   <stop stop-color="#6d8316" id="stop5081" offset="0"/>
   <stop stop-color="#6d8316" stop-opacity="0" id="stop5083" offset="1"/>
  </linearGradient>
  <linearGradient id="linearGradient5071">
   <stop stop-color="#719200" id="stop5073" offset="0"/>
   <stop stop-color="#719200" stop-opacity="0" id="stop5075" offset="1"/>
  </linearGradient>
  <linearGradient id="linearGradient5061">
   <stop stop-color="#5e730d" id="stop5063" offset="0"/>
   <stop stop-color="#5e730d" stop-opacity="0" id="stop5065" offset="1"/>
  </linearGradient>
  <linearGradient id="linearGradient3130">
   <stop stop-color="#000000" stop-opacity="0.125" id="stop3133" offset="0"/>
   <stop stop-color="#000000" stop-opacity="0" id="stop3135" offset="1"/>
  </linearGradient>
  <linearGradient id="linearGradient3866">
   <stop stop-color="#556905" id="stop3868" offset="0"/>
   <stop stop-color="#556905" stop-opacity="0" id="stop3870" offset="1"/>
  </linearGradient>
  <linearGradient id="linearGradient3858">
   <stop stop-color="#617903" id="stop3860" offset="0"/>
   <stop stop-color="#617903" stop-opacity="0" id="stop3862" offset="1"/>
  </linearGradient>
  <linearGradient id="linearGradient3850">
   <stop stop-color="#556905" id="stop3852" offset="0"/>
   <stop stop-color="#556905" stop-opacity="0" id="stop3854" offset="1"/>
  </linearGradient>
  <linearGradient id="linearGradient3842">
   <stop stop-color="#556905" id="stop3844" offset="0"/>
   <stop stop-color="#556905" stop-opacity="0" id="stop3846" offset="1"/>
  </linearGradient>
  <linearGradient id="linearGradient3834">
   <stop stop-color="#495714" id="stop3836" offset="0"/>
   <stop stop-color="#495714" stop-opacity="0" id="stop3838" offset="1"/>
  </linearGradient>
  <linearGradient id="linearGradient3826">
   <stop stop-color="#5e6f18" id="stop3828" offset="0"/>
   <stop stop-color="#5e6f18" stop-opacity="0" id="stop3830" offset="1"/>
  </linearGradient>
  <linearGradient id="linearGradient3806">
   <stop stop-color="#465311" id="stop3808" offset="0"/>
   <stop stop-color="#465311" stop-opacity="0" id="stop3810" offset="1"/>
  </linearGradient>
  <linearGradient id="linearGradient3796">
   <stop stop-color="#516508" id="stop3798" offset="0"/>
   <stop stop-color="#516508" stop-opacity="0" id="stop3800" offset="1"/>
  </linearGradient>
  <linearGradient id="linearGradient2328">
   <stop stop-color="#556905" id="stop2330" offset="0"/>
   <stop stop-color="#283008" id="stop2332" offset="1"/>
  </linearGradient>
  <linearGradient id="linearGradient3197">
   <stop stop-color="#876b3d" id="stop3199" offset="0"/>
   <stop stop-color="#876b3d" stop-opacity="0" id="stop3201" offset="1"/>
  </linearGradient>
  <linearGradient id="linearGradient3187">
   <stop stop-color="#897757" id="stop3189" offset="0"/>
   <stop stop-color="#897757" stop-opacity="0" id="stop3191" offset="1"/>
  </linearGradient>
  <linearGradient id="linearGradient3179">
   <stop stop-color="#ac8849" id="stop3181" offset="0"/>
   <stop stop-color="#ac8849" stop-opacity="0" id="stop3183" offset="1"/>
  </linearGradient>
  <linearGradient id="linearGradient3171">
   <stop stop-color="#c0a178" id="stop3173" offset="0"/>
   <stop stop-color="#c0a178" stop-opacity="0" id="stop3175" offset="1"/>
  </linearGradient>
  <linearGradient id="linearGradient3163">
   <stop stop-color="#a57839" id="stop3165" offset="0"/>
   <stop stop-color="#a57839" stop-opacity="0" id="stop3167" offset="1"/>
  </linearGradient>
  <linearGradient id="linearGradient8540">
   <stop stop-color="#a68363" stop-opacity="0" id="stop8542" offset="0"/>
   <stop stop-color="#a68363" stop-opacity="0.428571" offset="0.1" id="stop8548"/>
   <stop stop-color="#a68363" id="stop8550" offset="0.5"/>
   <stop stop-color="#a68363" stop-opacity="0.603922" offset="0.9" id="stop8552"/>
   <stop stop-color="#a68363" stop-opacity="0" id="stop8544" offset="1"/>
  </linearGradient>
  <linearGradient id="linearGradient4073">
   <stop stop-color="#3d4c00" id="stop4075" offset="0"/>
   <stop stop-color="#3d4c00" stop-opacity="0" id="stop4077" offset="1"/>
  </linearGradient>
  <linearGradient id="linearGradient4065">
   <stop stop-color="#465702" id="stop4067" offset="0"/>
   <stop stop-color="#465702" stop-opacity="0" id="stop4069" offset="1"/>
  </linearGradient>
  <linearGradient id="linearGradient4055">
   <stop stop-color="#3d4c00" id="stop4057" offset="0"/>
   <stop stop-color="#3d4c00" stop-opacity="0" id="stop4059" offset="1"/>
  </linearGradient>
  <linearGradient id="linearGradient4047">
   <stop stop-color="#495a05" id="stop4049" offset="0"/>
   <stop stop-color="#495a05" stop-opacity="0" id="stop4051" offset="1"/>
  </linearGradient>
  <linearGradient id="linearGradient4039">
   <stop stop-color="#4c5e04" id="stop4041" offset="0"/>
   <stop stop-color="#4c5e04" stop-opacity="0" id="stop4043" offset="1"/>
  </linearGradient>
  <linearGradient id="linearGradient4031">
   <stop stop-color="#465705" id="stop4033" offset="0"/>
   <stop stop-color="#465705" stop-opacity="0" id="stop4035" offset="1"/>
  </linearGradient>
  <linearGradient id="linearGradient4021">
   <stop stop-color="#3d4c00" id="stop4023" offset="0"/>
   <stop stop-color="#3d4c00" stop-opacity="0" id="stop4025" offset="1"/>
  </linearGradient>
  <linearGradient id="linearGradient4013">
   <stop stop-color="#475807" id="stop4015" offset="0"/>
   <stop stop-color="#475807" stop-opacity="0" id="stop4017" offset="1"/>
  </linearGradient>
  <linearGradient id="linearGradient4005">
   <stop stop-color="#5a6c19" id="stop4007" offset="0"/>
   <stop stop-color="#5a6c19" stop-opacity="0" id="stop4009" offset="1"/>
  </linearGradient>
  <linearGradient id="linearGradient3997">
   <stop stop-color="#536702" id="stop3999" offset="0"/>
   <stop stop-color="#536702" stop-opacity="0" id="stop4001" offset="1"/>
  </linearGradient>
  <linearGradient y2="-0.017406" x2="0.036575" y1="0.09045" x1="0.129477" id="linearGradient4003" xlink:href="#linearGradient3997"/>
  <linearGradient y2="-0.036304" x2="0.900556" y1="0.089293" x1="0.73137" id="linearGradient4011" xlink:href="#linearGradient4005"/>
  <linearGradient y2="1.085899" x2="0.056813" y1="0.817411" x1="0.195976" id="linearGradient4027" xlink:href="#linearGradient4021"/>
  <linearGradient y2="0.560651" x2="0.999992" y1="0.447287" x1="0.900371" id="linearGradient4029" xlink:href="#linearGradient4013"/>
  <linearGradient y2="0.442422" x2="-0.043628" y1="0.354224" x1="0.111795" id="linearGradient4037" xlink:href="#linearGradient4031"/>
  <linearGradient y2="0" x2="0.051093" y1="0.130455" x1="0.265278" id="linearGradient4045" xlink:href="#linearGradient4039"/>
  <linearGradient y2="-0.009696" x2="0.655506" y1="0.075359" x1="0.67271" id="linearGradient4053" xlink:href="#linearGradient4047"/>
  <linearGradient y2="0.015285" x2="0.000005" y1="0.03867" x1="0.085968" id="linearGradient4063" xlink:href="#linearGradient4055"/>
  <linearGradient y2="0.030489" x2="0.030823" y1="0.120752" x1="0.13207" id="linearGradient4071" xlink:href="#linearGradient4065"/>
  <linearGradient y2="0.956274" x2="0.008078" y1="0.82421" x1="0.101934" id="linearGradient4079" xlink:href="#linearGradient4073"/>
  <linearGradient y2="1.000004" x2="1.000003" y1="-0.000005" x1="-0.000005" id="linearGradient8546" xlink:href="#linearGradient8540"/>
  <linearGradient y2="0.442721" x2="0.500004" y1="0.241857" x1="0.685535" id="linearGradient3169" xlink:href="#linearGradient3163"/>
  <linearGradient y2="0.524911" x2="0.461139" y1="0.234101" x1="0.68702" id="linearGradient3177" xlink:href="#linearGradient3171"/>
  <linearGradient y2="0.49999" x2="0.450263" y1="0.274639" x1="0.589573" id="linearGradient3185" xlink:href="#linearGradient3179"/>
  <linearGradient y2="0.564747" x2="0.460674" y1="0.327926" x1="0.754453" id="linearGradient3193" xlink:href="#linearGradient3187"/>
  <linearGradient y2="0.499998" x2="0.500005" y1="0.225868" x1="0.677862" id="linearGradient3203" xlink:href="#linearGradient3197"/>
  <linearGradient y2="1.021923" x2="1.015482" y1="0.774874" x1="0.840192" id="linearGradient2334" xlink:href="#linearGradient2328"/>
  <linearGradient y2="0.300653" x2="0.999996" y1="0.292822" x1="0.908295" id="linearGradient3802" xlink:href="#linearGradient3796"/>
  <linearGradient y2="-0.000009" x2="0.000002" y1="0.072515" x1="0.101286" id="linearGradient3812" xlink:href="#linearGradient3806"/>
  <linearGradient y2="-0.000033" x2="1" y1="0.41376" x1="0.625" id="linearGradient3832" xlink:href="#linearGradient3826"/>
  <linearGradient y2="0.919324" x2="0.1" y1="0.564485" x1="0.3" id="linearGradient3840" xlink:href="#linearGradient3834"/>
  <linearGradient y2="0.99996" x2="1" y1="0.56246" x1="0.7" id="linearGradient3848" xlink:href="#linearGradient3842"/>
  <linearGradient y2="0.134579" x2="0.232143" y1="0.346117" x1="0.553571" id="linearGradient3856" xlink:href="#linearGradient3850"/>
  <linearGradient y2="0.279962" x2="1" y1="0.379962" x1="0.597222" id="linearGradient3864" xlink:href="#linearGradient3858"/>
  <linearGradient y2="0.146318" x2="0.21875" y1="0.475587" x1="0.40625" id="linearGradient3872" xlink:href="#linearGradient3866"/>
  <linearGradient y2="0.004205" x2="0.926199" y1="0.089788" x1="0.798036" id="linearGradient3137" xlink:href="#linearGradient3130"/>
  <linearGradient y2="1.152708" x2="0.749935" y1="0.641224" x1="0.416617" id="linearGradient5067" xlink:href="#linearGradient5061"/>
  <linearGradient y2="0.949205" x2="0.721322" y1="0.500018" x1="0.230882" id="linearGradient5077" xlink:href="#linearGradient5071"/>
  <linearGradient y2="0.999989" x2="-0.000011" y1="0.599957" x1="0.393905" id="linearGradient5085" xlink:href="#linearGradient5079"/>
  <linearGradient y2="0.322511" x2="0.285803" y1="0.499923" x1="0.857135" id="linearGradient5968" xlink:href="#linearGradient5962"/>
  <linearGradient y2="0.999996" x2="0.957286" y1="0.79677" x1="0.690955" id="linearGradient6855" xlink:href="#linearGradient6849"/>
  <linearGradient y2="0.470976" x2="0.500013" y1="0.139674" x1="0.762398" id="linearGradient7738" xlink:href="#linearGradient7732"/>
 </defs>
 <metadata id="metadata7">image/svg+xml</metadata>
 <g>
  <title>Layer 1</title>
  <path fill="#3d4c00" fill-rule="evenodd" stroke-width="1px" d="m327.60495,150.996368c41.239502,25.177856 80.067993,33.020752 112.572632,66.245239c26.315918,26.898438 42.876465,62.398926 53.20752,97.404419c2.891724,9.798462 7.47583,36.514771 7.266235,48.038086c-1.779541,-5.019043 -3.706055,-11.267456 -5.70459,-16.61499c2.80481,14.325317 2.389893,41.129028 -3.251831,58.875977c-3.748901,-6.047119 -4.401611,-12.094238 -5.209229,-19.534546c-3.90686,2.821655 -7.813843,5.643311 -11.720703,8.464966c1.145874,-3.815918 1.982056,-9.954102 0.651123,-15.627686c-6.294434,1.953491 -12.588867,3.906982 -18.883301,5.860474c-3.594116,-10.263672 -5.485352,-20.682129 -5.209229,-31.255371c-6.045532,-2.41626 -10.388062,-2.974731 -16.278809,-2.604614c-3.712036,-13.083496 -8.353027,-47.994873 -9.588257,-71.76001c-20.026367,-50.237671 -55.842773,-76.015991 -97.851563,-127.491943z" id="path3609"/>
  <path fill="#3f3124" fill-rule="evenodd" stroke-width="1px" d="m814.014221,772.193848c20.942261,2.17395 31.409546,2.621094 57.301392,0.651123c-22.4104,-23.76709 -40.728638,-47.31897 -59.091919,-72.11499c-41.988892,-56.697388 -98.75769,-116.239868 -157.090088,-164.903687c-63.975952,-53.371918 -128.593262,-102.058685 -191.438202,-151.717987c-39.599121,-31.290894 -69.248047,-75.927979 -96.370239,-117.858398c-10.644531,-16.456177 -15.639648,-38.378052 -16.929932,-57.301147c-0.663086,-9.727539 7.379761,-19.100342 11.06958,-28.650635c-8.030762,-6.511475 -16.061768,-13.022949 -24.092529,-19.534424c-14.542419,6.077393 -29.084717,12.154785 -43.627136,18.232178c12.588928,19.534546 26.387024,38.418091 37.766785,58.603516c6.852417,12.155029 7.61792,27.094727 15.464722,38.580688c22.106079,32.358276 43.817993,66.957153 71.952271,94.905151c32.531616,32.316406 71.389893,58.497192 105.811859,88.393677c20.057495,17.42041 39.645142,34.603516 60.068604,51.603638c43.036133,35.822723 83.00061,71.475311 121.765015,109.393158c46.729614,45.708984 88.77771,98.382813 107.439819,151.71814z" id="path3567"/>
  <path fill="url(#linearGradient7738)" fill-rule="evenodd" stroke-width="1px" d="m737.589783,614.534302c-4.083374,-2.416626 -20.416748,11.166748 -17.5,16c9.5,10.166748 19,20.333374 28.5,30.5c-3.083374,-4.75 13.333252,-18 18.5,-13.5c-9.833374,-11 -19.666748,-22 -29.5,-33z" id="path6857"/>
  <path fill="url(#linearGradient3203)" fill-rule="evenodd" stroke-width="1px" d="m620.589661,508.534454c-5.5,-4.833252 -22.25,10.833344 -15.25,17.999969c8.333252,7.833374 17.666748,15.416748 26.5,22.75c-4.416748,-5.25 7.916748,-23.25 14.5,-19.5c-9.166748,-7.25 -16.583252,-14 -25.75,-21.249969z" id="path3195"/>
  <path fill="url(#linearGradient3193)" fill-rule="evenodd" stroke-width="1px" d="m677.20575,589.918335c-4.035767,-4.595947 12.43457,-22.450073 16.883911,-18.383911c13.166748,12.666748 26.68689,25.333374 39.5,38c-3.368652,-2.818604 -21.056152,13.101074 -17.707153,17.353638c-12.833252,-12.5 -27.434326,-23.585815 -38.676758,-36.969727z" id="path2287"/>
  <path fill="url(#linearGradient3185)" fill-rule="evenodd" stroke-width="1px" d="m615.318054,504.998322c-5.747437,-3.839844 -19.244751,13.57016 -15.742065,16.730438c-7.331909,-4.930664 -17.66394,-13.611298 -26.24585,-21.541962c-3.958984,-3.779419 10.581909,-20.308838 14.122925,-17.838257c9.28833,7.299927 18.57666,14.599854 27.86499,22.64978z" id="path4085"/>
  <path fill="url(#linearGradient3177)" fill-rule="evenodd" stroke-width="1px" d="m581.880066,478.121613c-4.128052,-1.220581 -15.756348,13.308838 -13.134399,17.338257c-8.256348,-7.637085 -16.762573,-13.774048 -25.018921,-21.411255c-1.915527,-3.040894 10.669067,-16.831787 14.253662,-14.872803c8.049805,6.39856 15.849731,12.547241 23.899658,18.945801z" id="path4087"/>
  <path fill="url(#linearGradient3169)" fill-rule="evenodd" stroke-width="1px" d="m537.284485,468.606476c-1.871826,-2.378174 10.756226,-15.506348 13.884521,-14.384521c-7.224365,-6.192139 -15.198486,-11.884399 -22.422852,-18.076538c-4.160156,-2.002686 -15.570435,10.994629 -14.730591,12.992065c7.506348,6.822998 15.762573,12.895996 23.268921,19.468994z" id="path4089"/>
  <path fill="url(#linearGradient6855)" fill-rule="evenodd" stroke-width="1px" d="m349.214691,190.659332c-0.416748,18.166748 3.178711,46.355713 11.25,64.375c4.345825,9.702026 38.958252,61.25 55.625,81.5l-78.5,-70l-21,-85l32.625,9.125z" id="path5972"/>
  <path fill="#253d06" fill-rule="evenodd" stroke-width="1px" d="m304.468475,103.742218l-42.726379,11.765137l-1.238464,40.249512l15.480591,47.680054l38.684387,21.057861c6.056152,-22.370483 30.612244,-19.990967 36.168518,-40.11145l1.930664,-32.341797l13.622925,-32.818848l-15.480591,-13.003662l-46.44165,-2.476807z" id="path2870"/>
  <path fill="#52630d" fill-rule="evenodd" stroke-width="1px" d="m262.854767,133.45462c-27.779419,5.21814 -55.452026,11.118408 -83.338318,15.654663c-50.671814,8.242798 -95.186218,22.851929 -125.237732,44.661987c-22.280457,16.170166 -50.801087,47.424561 -53.870667,53.870605c-1.474426,9.380737 1.609253,18.110352 0.460449,27.165649c2.455627,-8.287842 2.632263,-17.87793 7.366882,-24.863403c-0.767334,6.139038 -1.534729,12.278198 -2.302124,18.417236c4.850891,-6.697144 6.446045,-15.347656 9.669067,-23.021606c0.46045,6.599487 0.089966,12.447266 1.055726,18.659058c1.709656,-4.356323 3.602173,-19.273193 5.850769,-27.867798c3.143494,6.006226 4.60437,31.769897 4.60437,31.769897c3.529968,-12.124634 5.594849,-24.575073 10.589905,-36.374146c-1.972046,9.906372 -1.013977,17.20813 0.920898,25.323853c0.376648,-6.655396 2.055542,-11.845703 5.525208,-17.036011c0.548706,5.408936 2.562561,10.003906 5.064758,14.273315c1.534729,-9.82251 1.44165,-19.807861 4.604309,-29.467651c0.767395,6.753052 1.53479,13.505981 2.302185,20.259033c3.474121,-7.720459 8.087769,-13.975708 13.352539,-20.719482c-1.762756,7.394897 -2.385986,13.812988 -1.381287,20.719482c3.836914,-9.208618 7.673828,-18.417358 11.510803,-27.625977c-1.53479,7.213501 -2.148682,13.505981 -1.841736,20.259033c4.604309,-8.364502 6.446045,-17.649902 11.050415,-25.78418c-0.844177,7.827393 -1.227844,14.043213 0.920837,20.719482c4.911255,-8.134399 10.743408,-14.42688 17.49646,-21.640381c1.688232,6.599487 3.376526,13.199097 5.064758,19.798584c3.529968,-11.587524 10.28302,-19.491577 18.877747,-28.546753c-2.53241,6.983154 -0.920898,13.275635 0,18.877686c3.299744,-10.589966 7.980835,-18.187134 14.733826,-27.625977c0,8.134399 0,16.268677 0,24.402954c4.450867,-9.362061 8.901733,-18.724365 13.352539,-28.086426c-2.378845,8.748169 -3.606689,15.654785 -3.683411,22.10083c2.916077,-9.669067 10.436462,-16.115234 12.89209,-26.244751c-0.767395,9.899292 3.06958,18.417358 4.604309,27.626099c2.839355,-10.666748 7.059998,-20.182373 13.3526,-29.928223c0.153442,4.604248 0.306946,9.208618 0.460388,13.812988c2.916077,-7.67395 11.357361,-13.736206 14.273438,-21.410156c0.143921,11.445923 5.832153,12.81543 11.510803,20.028809c0.827759,-8.306396 9.143799,-29.310303 15.180725,-35.98877c8.927429,-4.253052 29.331299,-17.459351 33.090149,-20.695068l1.916321,-5.474487z" id="path3587"/>
  <path fill="url(#linearGradient4027)" fill-rule="evenodd" stroke-width="1px" d="m295.698639,116.485504c-2.604614,-10.092896 -11.395142,-16.604492 -13.674194,-27.348389c2.604614,0 5.209229,0 7.813843,0c-1.302307,-7.162598 -2.604614,-14.325317 -3.906921,-21.487915c4.992126,-4.558105 9.984314,-2.604614 14.97644,-3.906982c-0.108521,-8.573486 0.434082,-21.053833 -2.604614,-28.650635c9.224609,-5.751831 13.240112,-3.364258 22.139099,-2.604492c5.100647,-11.720703 18.360168,-19.720947 22.139221,-29.30188c11.19751,-2.682495 22.4646,-5.860352 35.487549,0.651123c-3.364136,3.798462 -3.798218,6.945679 -3.255615,12.371948c7.7052,-2.713135 28.759033,-0.868164 40.696899,13.022949c-5.643311,0.217163 -11.612305,-1.519287 -16.929932,0.651245c3.255737,4.775146 6.511475,9.550171 9.767212,14.325317c-4.341064,3.038696 -8.682007,6.077393 -13.023071,9.116089c-0.651123,3.90686 -1.302246,7.813843 -1.953369,11.720703c-9.767334,3.472778 -18.557739,10.526855 -29.301758,10.418335c4.232422,3.038696 7.16272,7.379761 7.813721,13.023071c-8.247803,4.775024 -15.844604,11.829224 -24.743652,14.325317c-2.821655,7.922241 -10.201294,9.007568 -12.371826,16.92981c-8.899048,2.821777 -16.170288,-8.356323 -22.790283,-5.209106l-5.209167,16.92981l-16.929932,-3.255615l5.860352,-11.720703z" id="path3611"/>
  <path fill="url(#linearGradient2334)" fill-rule="evenodd" stroke-width="1px" d="m295.698639,126.578278c-7.813843,-11.06958 -31.580811,-17.581055 -39.394592,-28.650635c-7.162659,1.953369 -22.790283,-3.581299 -24.09259,1.627808c-5.751831,-5.53479 -16.05896,-7.127319 -20.807739,-10.925903c0,0 2.604614,-9.767212 0,-11.069458c-2.278992,2.278931 -2.387512,1.356445 -9.767212,5.046265c-10.364197,-4.449463 -7.868103,-4.340942 -15.953186,-9.44165c5.209167,-5.69751 5.860352,-7.325439 12.046265,-12.534668c-8.193665,2.387573 -10.526917,7.542603 -20.51123,7.325562c-3.08197,-6.771484 -5.339844,-13.888184 -7.231262,-20.552734c-6.430908,-0.278076 -8.783691,0.000854 -16.637024,0.912109c-1.799438,-7.334839 -2.132996,-9.451538 -3.872681,-17.343018c-5.531677,-3.542847 -11.823425,0.692993 -16.535095,-0.693237c0.349243,-3.62854 0.705566,-6.902466 1.875916,-10.964966c2.369385,-1.858643 10.581299,-5.984863 16.167419,-6.991333c0.98175,-3.308594 1.577332,-5.848999 2.354248,-9.199829c7.59375,3.528198 42.1474,7.701904 58.360352,19.271606c0.378418,3.910034 1.085266,11.503662 1.95343,16.60437c1.627869,-3.689941 1.627869,-7.379761 2.930176,-10.744019c3.255798,2.062012 14.813721,4.612305 18.232239,7.813843c-2.604614,4.340942 -3.255737,6.077393 -3.906921,8.464966c2.224792,-2.170532 4.123962,-4.178345 6.511536,-5.534912c13.240051,7.813843 40.479797,41.348145 53.719849,49.161865c3.68988,10.635498 6.403015,11.666504 10.092834,22.302002l-5.534729,16.115967z" id="path3613"/>
  <path fill="url(#linearGradient4079)" fill-rule="evenodd" stroke-width="1px" d="m297.000946,125.601593c34.728027,-13.891235 65.506836,-31.846924 100.96106,-44.436279c32.871216,-11.672241 70.490845,-20.448486 104.802368,-23.283447c33.738007,-2.787476 89.322357,16.884766 103.532928,24.743652c14.440063,7.98584 29.216431,18.153198 40.371338,29.30188c-11.937744,1.519409 -23.875488,4.650146 -35.813232,4.558105c-16.982666,-9.050293 -30.97229,-21.323608 -48.185181,-30.604126c7.379761,6.728516 14.759399,13.457031 22.13916,20.185547c-14.62146,-8.221558 -28.321777,-15.982666 -39.720215,-26.045898c2.755737,8.464966 8.734741,16.92981 11.720703,25.394897c-11.937744,-7.16272 -25.256836,-13.174316 -35.813232,-21.488037c0.138062,5.860352 1.887573,11.490479 4.557983,17.581055c-5.682617,-1.657349 -11.595825,-5.847168 -14.976288,-9.116089c-5.886719,2.104614 -11.543091,5.590576 -16.278809,9.767212c-7.544189,-0.93396 -17.390381,2.275757 -25.394897,0.651245c-0.743286,3.90686 0.81543,8.27417 2.604614,11.720703c-33.221802,-6.327637 -66.308716,-7.932495 -98.974854,-5.860474c-25.503296,1.617676 -50.355591,11.286743 -75.533447,16.930054z" id="path3615"/>
  <path fill="url(#linearGradient4037)" fill-rule="evenodd" stroke-width="1px" d="m304.814667,130.810822c18.449341,-8.465088 36.627563,-17.740723 55.347778,-25.394897c20.20166,-8.259888 38.915405,-11.884766 64.963989,-12.325684c36.427246,-0.616455 66.980469,18.319214 89.068573,41.765137c13.972656,14.831543 23.876343,40.4375 25.684937,56.512329c-6.630005,-6.281372 -10.727539,-12.332397 -13.674072,-19.534546c-4.216064,4.28833 -6.820679,9.497559 -7.813843,15.627563c-4.012207,-6.958618 -6.182617,-12.536133 -6.511444,-20.185547c-1.99292,8.432251 -2.604614,10.418335 -3.90686,15.627563c-3.959595,-7.340332 -7.689087,-15.601318 -9.116211,-24.092529c-2.091553,9.425293 -5.794556,17.008911 -10.418457,23.441406c-0.434082,-6.945679 -2.940063,-12.049561 -1.302246,-20.836792c-6.965576,6.53772 -5.643311,12.154785 -8.464966,18.232178c-1.736328,-8.464966 -6.005127,-15.778809 -5.209106,-25.394775c-3.255859,5.860229 -6.511597,11.720581 -9.767334,17.580933c-3.038696,-11.286621 -8.839966,-20.270996 -9.116089,-33.859741c-2.821655,9.116089 -7.484985,17.771729 -8.464966,27.348267c-11.023682,-10.352539 -18.363892,-21.625977 -24.092529,-34.510864c1.841675,5.643188 0.920898,9.905273 0,16.92981c-7.853271,-1.644287 -13.404419,-4.209229 -21.488037,-9.767212c-2.387451,1.736328 -4.775146,3.472778 -7.162598,5.209106c-6.873413,-3.544922 -11.214355,-8.471313 -13.022949,-18.232178c-4.360596,9.247803 -8.721191,11.128662 -16.765137,14.851196c-5.176636,-0.644287 -8.412354,-0.762451 -11.760254,-2.249023c2.17041,-6.728638 0.427246,-7.41394 1.677002,-14.200195c-6.215576,6.807617 -3.970581,7.054077 -10.588867,10.293213c-7.813843,0.651123 -28.980164,1.072144 -36.794006,1.723267c-0.434082,-1.519287 -0.868164,-3.038696 -1.302307,-4.557983z" id="path3601"/>
  <path fill="url(#linearGradient4029)" fill-rule="evenodd" stroke-width="1px" d="m296.005951,119.64151c-26.816284,-15.156982 -75.946045,-42.147095 -113.647949,-43.192017c-40.077942,-1.110962 -79.96405,11.959351 -93.546814,21.091309c7.520386,-0.383789 14.350159,0.613892 21.179871,2.302124c-7.059937,5.601929 -9.515625,10.513184 -14.273438,18.877686c5.448486,-6.522705 10.436523,-6.139038 15.654724,-9.208496c-1.458008,5.371704 -6.599487,8.671509 -7.827332,14.733765c6.522827,-2.071899 10.28302,0.460327 17.49646,-1.381348c-2.148682,6.369385 -7.75061,11.587646 -9.208679,18.41748c5.67865,-2.992798 11.81781,-2.302246 17.036011,-5.525269c0.076782,5.985596 2.225464,8.978394 3.683472,15.194214c5.141479,-3.376465 7.290161,-9.515625 11.971252,-12.89209c3.683472,5.832153 3.223022,11.434082 6.906494,17.49646c3.836975,-8.441284 8.594788,-13.429321 11.510803,-21.17981c1.304565,4.834473 5.832153,7.827271 7.366943,12.431519c0.690674,-7.290161 5.755432,-14.119873 6.906494,-21.17981c2.992798,11.127075 2.992798,22.024048 5.525208,32.690796c0.383667,-8.594849 1.918457,-17.189575 4.604309,-25.784302c0.306946,8.517944 1.53479,15.654663 4.834534,23.482056c2.762634,-9.975952 5.064758,-18.570801 4.374146,-28.546753c2.916077,8.441284 5.832153,16.882446 8.74823,25.32373c-0.153503,-6.292603 -0.306946,-12.585205 -0.460449,-18.877808c1.995239,4.297363 3.990417,8.594727 5.985596,12.89209c-1.534729,-13.199097 -4.68103,-25.937622 -4.604309,-39.597168c3.453247,13.199097 10.129517,28.239868 15.194275,42.359741c-1.841736,-10.896851 -2.07196,-21.333374 -3.913696,-32.230225c1.660339,1.431396 3.162659,1.711548 3.683472,2.532471c2.916077,8.594727 6.983276,14.196655 14.043213,22.330933c0.613892,-5.218262 2.609131,-10.436523 5.985657,-14.273438c3.223022,-0.920898 41.055237,-4.68103 46.733887,-4.604248l8.057617,-3.683594z" id="path3591"/>
  <path fill="url(#linearGradient3802)" fill-rule="evenodd" stroke-width="1px" d="m41.847015,133.45462c9.095825,-4.766846 46.011292,-19.450439 79.053955,-26.672363c18.218872,-3.981934 59.441345,-6.057129 77.986389,-4.334717c31.028259,2.881958 58.4422,9.059692 89.291199,14.891846l-19.338135,11.510864c-22.272888,2.288086 -39.972168,5.944946 -61.934998,11.096558c-15.332214,3.596558 -34.602417,9.664673 -49.950195,15.148071c-3.683472,-6.446045 -8.994812,-11.915283 -11.050415,-19.338135c-13.124573,11.929565 -27.877075,21.579956 -43.280701,29.928101c3.683472,-4.604248 7.366943,-9.208618 11.050415,-13.812988c-6.139099,1.688354 -12.278198,3.376465 -18.417297,5.064819c2.916077,-6.292603 5.832153,-12.585205 8.74823,-18.877808c-5.985657,3.990356 -11.971252,7.980957 -17.956909,11.971313c3.376526,-4.450928 6.752991,-8.901733 10.129517,-13.352661c-9.957397,4.39502 -19.589233,12.371338 -30.848999,16.115234c2.762634,-2.916138 5.525208,-5.832153 8.287781,-8.748291c-5.064758,1.841675 -10.129517,3.683472 -15.194275,5.525146c-6.501892,-4.069336 -8.120178,-9.44104 -16.575562,-16.11499z" id="path3593"/>
  <path fill="#3d4c00" fill-rule="evenodd" stroke-width="1px" d="m244.437469,166.605743c-33.151184,29.007202 -53.309631,44.629395 -83.798767,75.971436c-13.405457,13.780396 -48.323303,58.618164 -56.63324,75.971436c-12.562988,26.234375 -18.877747,43.434082 -22.561218,70.446167c0.539429,6.771606 2.381165,13.217651 5.525208,19.338135c0.460388,-3.529907 0.920837,-7.059937 1.381287,-10.589966c1.841736,2.302246 3.683472,4.60437 5.525208,6.906616c1.139465,-10.589966 -0.651184,-21.179932 0,-31.769897c2.148682,4.143921 4.297363,8.287842 6.446045,12.431641c2.358032,-4.413574 3.413757,-9.803955 4.14386,-15.194214c2.869568,4.795044 7.855286,7.311035 11.050415,12.431641c-1.916199,-7.366821 -2.530151,-14.733887 -1.841736,-22.100708c3.990417,3.990356 7.980835,7.980713 11.971252,11.971191c-2.609131,-6.906494 -5.218262,-13.812988 -7.827332,-20.719482c3.683411,4.297485 7.366882,8.594727 11.050354,12.89209c-1.111572,-4.901978 -1.572021,-9.641113 -1.381287,-15.194214c4.497375,5.362305 7.855286,10.39917 11.050415,16.575562c-0.106934,-6.464722 -1.190613,-12.278198 -2.762634,-18.417358c1.688232,3.376587 3.376526,6.753052 5.064758,10.129517c-1.995178,-7.827393 -3.990417,-15.654663 -5.985596,-23.482056c3.645081,5.870483 9.822571,9.20874 14.733826,13.812988c-3.146301,-5.21814 -5.717041,-11.932861 -7.366943,-18.417358c4.028809,4.259033 6.676331,8.057617 9.669128,13.81311c2.033569,-7.443726 0.613892,-15.3479 0.920837,-23.021729c3.223022,3.990356 6.446045,7.980835 9.669128,11.971313c0.345276,-5.448486 -2.762634,-10.436523 -4.143921,-15.654785c3.683472,5.371704 7.597168,9.592407 11.050415,16.115112c-2.762634,-12.047974 -6.561218,-24.095947 -11.050415,-35.453247c5.256592,6.944824 7.980835,15.040771 11.971252,22.561157c-0.959229,-9.78418 -3.990417,-19.338135 -5.985596,-29.007324c3.913635,10.973633 10.129517,18.724365 15.194275,28.086426c-1.074341,-4.450806 -2.148682,-8.901733 -3.223022,-13.352417c3.683411,-1.074463 6.21582,-1.112915 9.669067,-0.460571c-4.796204,-9.438843 -7.980835,-19.338135 -11.971252,-29.007202c4.604309,7.980835 9.208679,15.96167 13.812988,23.942505c-0.306946,-5.525146 -0.613892,-11.050415 -0.920898,-16.575562c3.223083,0.767334 6.446106,1.53479 9.669128,2.302124c0.306946,-3.683472 0.613892,-7.366821 0.920837,-11.050293c3.990417,1.227783 7.980835,2.455566 11.971252,3.68335c-1.381287,-5.832153 -2.762573,-11.664307 -4.14386,-17.49646c3.836914,2.302246 5.486816,5.179932 7.366882,8.287842c2.302185,-5.21814 4.60437,-10.436523 6.906494,-15.654663c1.688293,0.767334 3.376526,1.534668 5.064758,2.302124c0.268616,-5.563599 -0.498779,-11.012085 1.841736,-14.273438c0.767395,-11.740967 15.100464,-52.770752 21.870605,-63.30957l-3.913696,-11.740967z" id="path3589"/>
  <path fill="url(#linearGradient4053)" fill-rule="evenodd" stroke-width="1px" d="m290.480743,137.598419c-3.683472,37.295166 -14.427307,61.023071 -30.848999,95.77002c-12.598938,26.658447 -27.259949,62.40625 -33.611572,96.690918c-4.360962,23.539307 0.785706,66.331421 6.906494,74.790405c2.302124,-2 2.464661,-2.428467 6.138794,-4.21875c2.986023,6.29248 2.877563,10.766235 6.460449,16.012817c-0.498108,-5.308594 1.366943,-8.189575 2.236694,-11.478027c1.358215,2.409058 12.776428,26.304565 12.776428,26.304565c1.809021,-4.994751 2.264648,-9.501343 5.538757,-15.310059c2.037231,9.362183 7.190613,11.864136 11.832458,19.923828c-0.344482,-12.659546 -1.688843,-16.831177 1.059692,-25.909424c2.199768,6.67395 6.352966,12.045776 11.971252,16.115112c-3.06958,-10.129517 -6.139099,-20.259033 -9.208679,-30.38855c7.311096,6.67395 15.598877,11.720215 24.863403,16.115234c-4.669556,-9.524902 -7.059998,-18.724365 -10.589966,-28.086426c7.990112,3.929932 15.654663,4.604248 23.482056,6.906494c-1.688232,-7.366943 -7.208618,-38.997192 -12.431702,-51.108154c5.427612,0.400024 8.901672,-2.455688 13.3526,-3.683472c-1.879028,-5.660034 -1.641724,-11.319946 -3.683533,-17.956787c3.836914,1.227783 7.673889,2.455566 11.510803,3.68335c-1.074341,-8.748169 -1.334717,-17.496338 -3.223022,-26.244507c2.455688,-5.371704 4.911377,-10.74353 7.366943,-16.115234c-3.651001,-13.584961 -1.930054,-30.10022 -4.604248,-44.661987c-10.099548,-7.748169 -30.937744,-57.946167 -27.626038,-93.928223c-3.223022,-1.074341 -6.446045,-2.148682 -9.669067,-3.223145z" id="path3597"/>
  <path fill="#000000" fill-opacity="0.126531" fill-rule="evenodd" stroke-width="1px" d="m312.03299,207.272003c1.621704,15.405151 2.889893,31.252319 -1.763916,47.408936c4,8.166748 6.05542,11.825562 8.817993,20.610962c-3.649048,5.782715 -6.193298,13.51001 -9.311951,21.148926c-0.699219,9.833374 -1.619507,23.202393 -9.124695,32.505249c2.916687,5.208252 5.015686,10.041138 7.932373,15.24939c-0.541687,-1.708252 -0.994873,-2.930542 -1.691284,-4.550537c2.71521,0.515991 10.733582,-1.818726 13.073181,-4.860474l17,-60.75c-8.310547,-22.25415 -16.00238,-44.685059 -24.931702,-66.762451z" id="path3145"/>
  <path fill="#3d4c00" fill-rule="evenodd" stroke-width="1px" d="m295.089691,165.534454c-1.333313,20.833374 3.251709,43.332886 0.5,64c-5.081604,38.16626 -13,76 -19.5,114c5.666687,-38.166626 11.90863,-76.260498 17,-114.5c2.741943,-20.59375 -0.166687,-42.833252 2,-63.5z" id="path3874"/>
  <path fill="url(#linearGradient3137)" fill-rule="evenodd" stroke-width="1px" d="m284.973541,169.006744c1.126221,7.17688 2.782837,13.02771 4.61615,20.02771c-2.833313,-0.5 -5.666687,-1 -8.5,-1.5c1.31311,6 2.7146,12 5,18c-2.666687,-1.833252 -5.333313,-3.666626 -8,-5.5c0.81311,5.921753 1.802979,11.489868 3.5,17.5c-1.833313,-0.5 -3.666687,-1 -5.5,-1.5c0.646423,3.421753 4.146423,7.681885 5.5,10.75c-1.166687,0.333374 -2.583313,-0.333252 -3.75,0c0.108582,6.421753 1.40918,14.239868 -0.25,20.75c-4.765198,3.358398 -5.201904,4.381226 -9.701904,10.214478c2.84082,8.638916 4.18689,20.67688 5.701904,28.785522c-4.717224,2.881348 -4.532776,4.868652 -9.25,7.75c2.57074,9.823242 0.045349,25 3.5,35c-3.421875,1.696777 -9.477356,6.780396 -13.75,5c-2.393982,1.568115 -5.651489,5.108643 -7.25,6.5c3.625,8 0.5,37.75 2,49.75c-2.09375,-0.8125 -7.03125,-1.84375 -8.65625,-2.96875c-2,3.708252 -3.75,10.510498 -4.75,14.34375c-0.854187,0.572998 -1.677063,1.333374 -2.3125,2.093872c-6,-11.833374 -11.53125,-25.135498 -17.53125,-36.968872c8.5,-38.833252 17,-77.666626 25.5,-116.5c10.333313,-13.833252 19.871155,-28.020264 30.204529,-41.853638l3.295471,-7.146362l-9.5,-28.5l11,-23.5l9.15686,-10.954956l3.763855,9.520386l-1.627808,9.343628c2.5,6 4.911621,13.94458 8.207092,19.590942c-3.833313,-3 -6.782776,-4.143799 -10.61615,-8.02771z" id="path2402"/>
  <path fill="#55641a" fill-rule="evenodd" stroke-width="1px" d="m272.523895,147.727936c-20.259094,50.647583 -66.302368,90.244873 -91.16571,139.511108c4.604309,-1.304443 5.525146,0.613892 8.287781,0.920898c-9.592346,11.3573 -18.03363,24.326172 -23.942505,36.834717c1.53479,-0.153442 3.069519,-0.307007 4.604309,-0.460449c-8.057556,12.585205 -14.043213,25.400513 -16.575562,39.136719c3.529968,0.613892 4.297363,3.06958 6.446045,4.60437c0.690674,11.587524 -4.374084,28.470215 -2.762573,43.741211c1.841675,-3.530029 3.683472,-7.060059 5.525146,-10.590088c4.450867,7.750732 4.297424,16.652344 9.208679,23.942505c-0.076721,-5.601807 3.069519,-9.592285 5.985596,-13.352417c3.683472,4.143799 2.302185,10.589844 6.906494,13.812988c-1.304504,-7.060181 1.53479,-12.27832 2.302185,-18.41748c4.450867,8.594849 6.599548,15.808228 7.827393,23.021729c4.374084,1.995239 5.985596,1.227783 9.669067,0.690674c-0.153503,-4.067139 0.613892,-6.75293 0.920837,-10.359741c3.223083,-0.383667 5.064758,2.685913 8.287842,2.302246c1.995178,-4.143921 2.148682,-7.827515 5.985596,-12.431763c2.302185,-1.074341 4.604309,-2.148682 6.906494,-3.223145c-2.148682,-4.143799 -4.297363,-8.28772 -6.446045,-12.431641c3.069519,2.302246 6.139099,4.604248 9.208618,6.906494c3.299805,-8.21106 -0.767334,-18.724243 2.302185,-29.467651c2.609131,1.995117 5.218262,3.990479 7.827393,5.985596c-1.995239,-11.971191 -0.767395,-24.402832 -5.985657,-35.913696c3.683472,-3.069702 5.985657,-7.290283 11.050415,-9.20874c6.829712,2.685913 10.436462,-2.455566 15.654663,-3.683472c-3.683411,-8.36438 -1.841675,-15.347778 -2.762573,-23.021606c4.757813,-2.378906 8.594727,-7.059937 12.892151,-10.589966c-0.613953,-12.354858 -13.045593,-30.695435 -12.431702,-40.978516c5.525208,-3.14624 5.525208,-8.594727 15.194275,-12.892212c2.148682,-11.664185 1.048096,-23.997192 -4.604309,-39.136719c-6.622559,-17.737793 7.059937,-36.834473 10.589966,-55.251831l-6.906494,-0.000122z" id="path3595"/>
  <path fill="#404f04" fill-rule="evenodd" stroke-width="1px" d="m258.926483,191.577911c-14.377808,31.112793 -30.295898,60.558472 -42.60321,92.454224c-10.202271,26.440552 -16.793762,55.331177 -24.925476,82.554688c8.838806,-27.105713 16.265076,-54.749512 26.516479,-81.317261c12.258179,-31.768555 27.341492,-62.46106 41.012207,-93.69165z" id="path3139"/>
  <path fill="#000000" fill-opacity="0.191837" fill-rule="evenodd" stroke-width="1px" d="m237.589691,193.534454l-18.875,44.25l5.375,-8l0,12.25l8.5,-11l3.75,15.25l4.75,-10.25l7.75,7.5l9.25,-27l5,6.75l4.25,-9.375l4.75,0.625l-9.5,-32.5l-25,11.5z" id="path3141"/>
  <path fill="url(#linearGradient4011)" fill-rule="evenodd" stroke-width="1px" id="path3573" d="m280.722137,122.996979l3.255798,9.116089c-0.868225,1.302246 -1.73645,2.604614 -2.604614,3.90686c3.110901,11.937744 11.286621,23.875488 16.929871,35.813232c-5.860291,-9.767212 -11.720703,-19.534546 -17.581055,-29.301636c2.907043,14.838379 10.418457,26.914185 15.627625,40.371216c-5.209167,-8.030884 -11.799683,-14.450195 -15.627625,-24.092529c2.065186,17.824463 7.813843,34.728027 11.720764,52.092041c-5.820862,-8.747803 -13.02301,-15.193481 -19.534546,-22.790283c6.386597,13.279541 7.248047,25.177856 14.325317,37.766724c-6.537842,-7.083618 -13.075684,-15.318481 -18.232239,-25.394775c3.906921,11.50354 6.892944,23.697876 11.720703,34.510864c-6.333923,-10.582764 -12.207458,-21.395874 -16.929871,-34.510864c2.604614,13.891113 4.28833,27.782349 7.813782,41.673584c-5.913025,-12.766479 -9.984314,-26.914185 -14.97644,-40.371338c3.959534,15.844604 6.998291,31.459106 9.116089,47.533936c-4.301514,-13.726807 -9.063416,-25.611938 -14.97644,-38.417847c2.683594,14.746216 2.604614,29.952881 3.90686,44.929321c-3.038696,-9.550171 -6.077393,-19.100464 -9.116089,-28.650635c-0.434082,11.286621 0.513123,22.803467 -1.302307,33.859863c-1.453491,-10.254028 -4.978943,-17.975586 -7.813782,-27.99939c-1.249634,8.925415 -3.189941,17.160034 -6.511536,25.394775c0.052673,-9.129272 -0.815491,-17.798096 -2.604553,-26.697144c-1.019409,6.78125 -4.341003,11.720703 -6.511536,17.581055c1.736389,-7.379761 2.091492,-14.299072 5.209229,-22.13916c-5.301392,4.084473 -7.3797,9.550171 -11.06958,14.325317c-1.302307,-4.261963 -2.604614,-11.746948 -3.906921,-16.929932c2.821655,-5.860229 4.722473,-10.109131 8.464966,-17.580933c-3.472778,4.340942 -6.485168,9.602905 -10.418396,13.022949c2.604614,-9.767334 4.058105,-19.074097 7.813782,-29.301758c-5.899841,4.071289 -9.497498,11.365601 -15.627563,14.97644c3.637146,-9.846313 7.734802,-17.160034 13.674133,-25.394897c-4.531738,3.755737 -9.523865,6.360352 -14.97644,7.813843c3.624023,-6.090576 8.168884,-11.720703 14.325317,-17.581055c-6.077393,3.90686 -12.154846,7.813721 -18.232239,11.720703c4.354187,-6.386597 6.636414,-10.240845 12.371887,-14.325317c-5.42627,1.953491 -10.852539,3.90686 -16.278748,5.860352c10.59552,-11.575928 26.395935,-28.250366 46.520508,-39.792358c9.394287,-5.387939 31.170227,-9.326782 42.035889,-10.997314z"/>
  <path fill="#37430d" fill-rule="evenodd" stroke-width="1px" d="m331.926971,149.07486c20.605957,14.234863 47.623291,22.173218 63.675293,39.608521c26.602783,28.89502 48.000977,72.938721 54.744507,107.19397c3.719971,18.896118 5.515625,39.06897 4.558105,58.603516c-2.496094,-2.387451 -2.670044,-9.574097 -6.404541,-16.915405c-1.939087,7.293457 -6.509888,12.574463 -9.223022,13.985229c-8.694824,-16.807007 -15.686768,-33.614014 -20.511353,-52.743164c0.616089,-20.744263 -4.340942,-42.107666 -6.511475,-63.161499c-5.113403,7.039795 -6.511475,15.627563 -9.767212,23.441284c-3.375366,-11.005615 -3.654663,-17.522095 -1.302246,-29.301758c-4.328369,8.819336 -10.978638,16.400146 -18.557861,21.813599c-0.216919,-9.224609 -2.136841,-16.746338 -0.651123,-27.673828c-3.48877,3.300293 -6.203491,4.897949 -11.395142,6.185791c-3.515869,-14.572632 -5.019165,-28.061646 -3.581299,-42.324707c-3.147217,0.542603 -6.294556,1.085205 -9.441772,1.627808c-5.292603,-13.756104 -14.145996,-28.286133 -25.630859,-40.339355z" id="path3585"/>
  <path fill="#000000" fill-opacity="0.347134" fill-rule="evenodd" stroke-width="1px" id="path4081" d="m561.44574,487.660065c-39.827271,-34.375244 -82.532196,-71.369751 -121.367523,-100.93335c-27.967529,-21.290405 -50.156982,-51.808228 -71.829834,-80.498901c25.291992,27.571411 46.7948,54.448364 74.687378,76.641235c44.929565,35.748535 101.663544,78.02124 149.517303,119.12915m0,0c45.855225,39.390961 94.563965,78.907806 135.51355,123.129242c39.136597,42.263306 70.434937,85.658936 91.075684,139.324951c-26.626587,-59.858154 -67.854004,-101.92395 -112.079346,-147.375c-45.149048,-46.400269 -96.382935,-87.009033 -145.517212,-129.417328"/>
  <path fill="url(#linearGradient4003)" fill-rule="evenodd" stroke-width="1px" d="m313.188019,171.510529c19.059509,45.01001 60.391541,105.595947 76.969666,151.45166c9.848267,27.240601 14.733887,56.172729 18.193848,84.9104c-2.762573,3.837036 -4.834595,6.75293 -8.057495,10.129517c-0.690796,3.606689 -1.036011,7.386108 -0.748291,10.302124c-3.165405,2.685791 -7.769775,4.508301 -9.381226,6.043091c3.683472,4.527588 4.834595,11.127197 5.755371,16.805908c-4.374146,1.53479 -8.287842,3.06958 -12.431641,7.366943c-1.534912,5.832153 -6.0625,9.82251 -10.129517,13.352539c-0.613892,-5.908936 -4.681152,-10.896973 -7.367065,-14.273438c-1.995117,1.765015 -5.141479,3.299683 -8.748169,3.223022c-0.383667,-5.371704 -5.371704,-13.505981 -6.906494,-17.956787c-4.067139,-0.844116 -6.29248,-1.688354 -10.589966,-4.143921c0.383789,-8.441284 0.076782,-15.96167 -2.302124,-23.942505c-4.220581,-0.997559 -7.059937,-0.613892 -11.971191,0.460327c1.995117,-6.369263 4.68103,-12.96875 8.748169,-18.417236c-4.297363,-0.307007 -8.594727,-0.613892 -12.89209,-0.920898c0.306885,-8.441284 -0.99762,-16.422119 0.920776,-25.323853c-3.376465,-2.992798 -6.522766,-4.374023 -11.510803,-8.28772c3.760193,-5.218262 4.988037,-8.824951 5.064819,-12.89209c-4.450928,-7.060059 -8.901733,-14.119995 -13.3526,-21.179932c7.673889,-8.978516 8.338013,-21.195923 8.541687,-32.246338c2.556335,-6.437988 5.356689,-14.233521 10.124878,-19.957275c-2.043274,-8.819702 -5.357056,-13.328857 -8.813965,-21.386475c3.899902,-19.054443 3.820923,-58.16687 -4.400024,-80.809204l5.283447,-2.307861z" id="path3599"/>
  <path fill="#3d4c00" fill-rule="evenodd" stroke-width="1px" d="m321.151886,194.759918c16.263367,27.105713 33.162415,55.10791 43.840637,84.49939c13.127808,36.133789 20.741821,74.010376 27.577148,112.076294c-8.131714,-38.537354 -16.529053,-76.181274 -29.698486,-112.429932c-10.636475,-29.276733 -26.752197,-56.097168 -41.719299,-84.145752z" id="path3143"/>
  <path fill="#000000" fill-opacity="0.151786" fill-rule="evenodd" stroke-width="1px" d="m315.174286,177.159332c9.392578,20.436035 21.002441,40.283203 31.166382,59.173584c8.544189,15.879883 17.475952,31.820923 25.957642,47.645996c-2.561646,-0.341553 -5.037842,-1.280884 -7.599365,-3.159302c-1.081665,5.180176 -2.163208,9.335693 -5.806396,12.978882c-5.692505,-3.643188 -10.526611,-6.041504 -14.00354,-12.978882c-3.312622,-6.609497 -0.227661,-21.916016 -1.366211,-33.130249c-5.464844,-2.390869 -8.197266,-4.269409 -11.271118,-9.221924c0.73999,-5.74939 0.455444,-11.84021 -0.341431,-17.760498c-5.63562,-5.63562 -10.929626,-9.563354 -17.419067,-13.320435c-0.825378,-11.413452 -2.760803,-22.656128 -6.147888,-33.557251l6.830994,3.330078z" id="path10359"/>
  <path fill="url(#linearGradient4063)" fill-rule="evenodd" stroke-width="1px" d="m313.930817,137.322296c21.487976,-0.868286 61.854065,-3.847046 82.731018,-0.127686c54.02417,9.624512 81.321899,19.419556 127.022675,47.916992c21.394409,13.34082 49.522095,46.13269 61.124878,68.115356c-2.284424,-0.91394 -5.033081,-4.614502 -7.781982,-6.766846c4.327881,7.334839 8.214233,25.016113 8.606934,31.931519c-4.329834,-4.138916 -7.345825,-4.994019 -11.894531,-5.630127c0.668091,8.03833 -0.853271,14.763184 -3.906982,21.487915c-5.426147,-10.201294 -10.852417,-20.40271 -16.278687,-30.604004c1.098389,9.557617 0.883179,18.020874 -1.302246,26.046021c-7.813843,-21.053833 -19.349487,-37.94812 -23.441406,-63.161621c0.015015,13.494751 -2.81604,18.2323 -5.209229,27.348389c-3.703003,-6.069946 -6.092407,-13.891235 -6.511475,-20.836792c-6.945648,-0.630493 -12.796722,-3.012451 -20.836884,-9.116089c-2.217651,3.31604 -5.584839,5.701782 -9.116089,7.813721c-4.761963,-9.121826 -11.713257,-17.641357 -18.883301,-25.394897c-2.395142,4.886475 -3.367065,8.842407 -4.558105,13.674194c-3.472778,-6.077393 -6.945557,-12.154785 -10.418457,-18.232178c-4.557983,0.651123 -9.116089,1.302246 -13.674072,1.953369c-0.217041,-6.728516 -0.434082,-13.457031 -0.651123,-20.185669c-5.02417,5.330444 -10.35791,8.64856 -16.929932,10.418457c-5.614624,-9.30127 -13.55127,-19.066895 -21.488037,-26.046021c-2.604614,2.821655 -5.209229,5.643311 -7.813843,8.464966c-2.942871,-8.961304 -3.718506,-18.077393 -3.255615,-27.348267c-7.938354,2.534302 -13.090088,5.068604 -20.099487,9.460571c-8.045898,-3.140991 -38.57959,-13.692383 -51.457458,-16.123657l-3.976563,-5.057617z" id="path3603"/>
  <path fill="url(#linearGradient4071)" fill-rule="evenodd" stroke-width="1px" d="m326.813446,151.871002c46.665894,24.092529 105.643921,49.082275 149.904907,76.612305c18.900635,11.756104 33.923706,29.506348 49.487518,45.580444c10.91626,11.27417 19.968628,24.309692 29.952881,36.464478c-4.031372,4.46228 -8.682007,6.447632 -13.022949,7.813843c-1.302368,-1.302246 -2.604614,-2.604614 -3.906982,-3.90686c-2.173706,2.71521 -3.573364,3.263062 -7.449951,4.430298c-1.857666,-3.213257 -3.715332,-6.426392 -5.572998,-9.639526c-0.497925,4.155884 -0.995972,6.299316 -1.803467,9.835938c-3.627563,1.329346 -9.732178,1.110718 -14.133759,-0.346313c-0.062256,-7.640015 -0.743774,-15.125244 -2.199219,-22.455566c-0.444702,7.743164 -0.579834,14.40271 -3.191895,20.907471c-4.113281,-0.560303 -13.18042,-4.37146 -16.984131,-6.479614c-0.403809,-8.38147 1.050049,-15.214966 -0.901733,-22.822266c-5.811646,0.115723 -9.262573,0.076538 -16.293335,-1.10437c-2.541382,-5.051025 -3.39917,-22.234985 -3.096069,-29.627441c-2.44812,5.271606 -3.967529,10.388184 -4.557983,16.278809c-16.920166,-14.136963 -25.790649,-25.487305 -31.255249,-37.766602c-6.54187,-3.624512 -11.225952,-3.533447 -18.2323,-3.906982c-22.515747,-25.797119 -53.700684,-54.690186 -86.743286,-79.868042z" id="path3607"/>
  <path fill="url(#linearGradient3812)" fill-rule="evenodd" stroke-width="1px" d="m325.000336,139.275665c35.817017,7.143921 72.42749,14.493774 106.137573,27.999512c34.009521,13.62561 68.703125,30.865601 97.021332,53.394287c20.518066,16.323364 37.807983,41.232056 49.487427,63.161621c-1.73645,5.860352 -3.472778,11.720703 -5.209229,17.581055c-4.650635,-0.280884 -8.991577,-1.18103 -13.022949,-4.558105c-5.42627,0.434082 -10.852539,0.868286 -16.278687,1.302368c-5.946533,-10.514282 -8.487183,-26.60144 -3.906982,-37.115601c-2.792847,4.771851 -9.610718,6.757324 -13.022949,7.813721c-1.73645,-5.209106 -3.472778,-10.418335 -5.209229,-15.627563c-3.846313,1.206543 -9.24057,0.86499 -14.325287,-1.953369c-1.864014,-6.572144 -7.443604,-12.834717 -13.023071,-16.929932c-2.821533,1.302368 -5.643311,2.604614 -8.464844,3.90686c-47.268188,-36.296143 -99.352661,-66.900269 -158.880737,-91.812134c-0.434082,-2.387573 -0.868164,-4.775146 -1.302368,-7.16272z" id="path3605"/>
  <path fill="url(#linearGradient4045)" fill-rule="evenodd" stroke-width="1px" d="m309.372772,132.113068c7.494629,3.864258 18.98938,11.798462 25.850708,19.768799c14.626587,16.990479 31.403198,42.022583 38.613159,65.243042c7.549438,24.313599 10.740845,40.443115 13.348633,65.729492c-6.833862,-5.794556 -11.135376,-12.049561 -14.97644,-20.836792c-1.371338,6.074219 -3.663574,8.69519 -6.185913,12.697388c-3.186768,-2.36438 -8.671265,-7.488892 -8.639404,-14.690308c0.033936,-7.702881 3.742554,-15.871094 3.311646,-23.806641c-5.922974,-2.024658 -9.083374,-4.279663 -12.934326,-8.836792c1.596069,-4.8573 3.422241,-9.254028 4.788208,-15.953125c-4.472778,-5.814453 -10.32666,-9.326782 -16.871338,-11.918213c-1.427246,-3.473755 -2.85437,-6.94751 -4.281494,-10.421265c-0.57666,-4.961304 0.688354,-9.922607 1.032593,-14.883789c-1.383179,4.815552 -2.766357,9.400757 -4.149536,14.446533c-8.255676,-4.19519 -16.97168,-8.160278 -18.551086,-12.355591c-2.387512,1.519409 -10.990845,2.808594 -13.378418,4.328003c-0.108521,-9.875854 8.077942,-26.40271 6.818359,-41.803711l6.204651,-6.707031z" id="path3583"/>
  <path fill="url(#linearGradient8546)" fill-rule="evenodd" stroke-width="1px" d="m845.668884,747.114258c-39.010986,-52.633911 -83.485352,-105.963989 -130.036743,-154.186401c-33.947632,-35.16626 -174.620728,-147.58139 -216.727875,-178.336029c39.836639,33.437988 181.986664,149.756195 217.347137,186.385956c45.13855,46.758911 87.516724,95.56665 129.41748,146.136475z" id="path4083"/>
  <path fill="#526701" fill-rule="evenodd" stroke-width="1px" d="m308.423981,107.785797c13.729614,-27.636108 29.843201,-55.241943 49.840637,-80.317383c-10.04248,17.177734 -19.568604,29.573608 -28.627441,46.376221c-5.554688,10.303223 -14.14209,24.513062 -21.213196,33.941162z" id="path3205"/>
  <path fill="#3d4c00" fill-rule="evenodd" stroke-width="1px" d="m297.089691,113.284454c-16.25,-14.5 -31.617981,-30.132813 -48.75,-43.5c-16.617981,-12.966064 -35,-23.666626 -52.5,-35.5c16.5,11.916748 33.463318,23.237427 49.5,35.75c17.713318,13.820679 34.5,28.833374 51.75,43.25z" id="path4090"/>
  <path fill="#4f600c" fill-rule="evenodd" stroke-width="1px" d="m267.089691,138.534454c-4.5,6.166748 -10.199951,11.738892 -13.5,18.5c-3.533264,7.238892 -4.666687,15.666748 -7,23.5c1.833313,-8.666626 1.756226,-18.329834 5.5,-26c3.0896,-6.329834 10,-10.666626 15,-16z" id="path3804"/>
  <path fill="url(#linearGradient3848)" fill-rule="evenodd" stroke-width="1px" d="m297.089691,134.534454l-7.5,-2l-10,2.5l6.5,-6l2.5,-6l5.5,5.5l3,6z" id="path3814"/>
  <path fill="url(#linearGradient3856)" fill-rule="evenodd" stroke-width="1px" d="m300.089691,135.534454l5.5,6l-3,6.5l10.5,0.5l1,-12l-14,-1z" id="path3816"/>
  <path fill="url(#linearGradient3872)" fill-rule="evenodd" stroke-width="1px" d="m295.089691,141.034454l-3,13.5l4,-1.5l1.5,6l10.5,2.5l-4.5,-10.5l-8.5,-10z" id="path3818"/>
  <path fill="url(#linearGradient3864)" fill-rule="evenodd" stroke-width="1px" d="m290.089691,137.034454l-10,-4l1.5,3.5l-6.5,1l-3,7l5.5,-5.5l0,6.5l5,-5l7.5,-3.5z" id="path3820"/>
  <path fill="url(#linearGradient5067)" fill-rule="evenodd" stroke-width="1px" d="m296.049652,130.059601l-7.071106,-12.020874l-8.838806,-8.485229l3.535522,-2.121338l0.353577,-11.313721l-3.889099,-3.889038l5.303284,-8.485352l11.313721,12.020874l3.535522,0l5.303345,7.778198l-3.889099,11.313599l-2.121338,14.849365l-3.535522,0.353516z" id="path3301"/>
  <path fill="url(#linearGradient5077)" fill-rule="evenodd" stroke-width="1px" d="m298.878082,131.827423l-3.889099,-12.020874l3.889099,-8.485229l5.303284,3.889038l-4.242615,6.717529l2.121338,12.020752l-3.182007,-2.121216z" id="path3303"/>
  <path fill="url(#linearGradient3840)" fill-rule="evenodd" stroke-width="1px" d="m295.589691,135.534454l10.5,-8.5l2,-7l-8.5,5.5l-4,-1l0,11z" id="path3822"/>
  <path fill="url(#linearGradient3832)" fill-rule="evenodd" stroke-width="1px" d="m292.589691,137.534454l-5,4.5l2.5,9l7.5,-5l0,-9.5l-5,1z" id="path3824"/>
  <path fill="url(#linearGradient5085)" fill-rule="evenodd" stroke-width="1px" d="m304.888519,132.88797l6.363892,-7.778076l6.363953,0l1.414246,-2.474976l7.424561,3.182007l-4.949707,6.363892l-18.384766,4.596191l1.767822,-3.889038z" id="path3305"/>
  <path fill="url(#linearGradient5968)" fill-rule="evenodd" stroke-width="1px" d="m298.170929,133.595123l5.303345,-1.060669l0.353516,5.65686l-1.060608,5.303223l-4.242676,-4.596191l-2.121338,-0.707031l1.767761,-4.596191z" id="path5087"/>
 </g>
</svg>